Coordinates
version=1
nRows=13
nColumns=38
inDegrees=no

Units are S.I. units (second, meters, Newtons, ...)
If the header above contains a line with 'inDegrees', this indicates whether rotational values are in degrees (yes) or radians (no).

endheader
time	pelvis_tilt	pelvis_list	pelvis_rotation	pelvis_tx	pelvis_ty	pelvis_tz	hip_flexion_r	hip_adduction_r	hip_rotation_r	knee_angle_r	ankle_angle_r	subtalar_angle_r	mtp_angle_r	hip_flexion_l	hip_adduction_l	hip_rotation_l	knee_angle_l	ankle_angle_l	subtalar_angle_l	mtp_angle_l	lumbar_extension	lumbar_bending	lumbar_rotation	arm_flex_r	arm_add_r	arm_rot_r	elbow_flex_r	pro_sup_r	wrist_flex_r	wrist_dev_r	arm_flex_l	arm_add_l	arm_rot_l	elbow_flex_l	pro_sup_l	wrist_flex_l	wrist_dev_l
0	0.141464	1.38974	-1.55901	0.611825	1.57961	0.954529	0.0272507	-0.173391	-0.147877	1.3043	-0.463914	0	0	-0.0501593	0.0429853	-0.0497979	0.260145	-0.249347	0	0	-0.379893	0.05087	-0.0682	-0.213607	-0.47124	0.467609	0.747115	0.9434	0	0	-0.184046	-0.19412	-0.0183735	0.626872	1.50921	0	0
0.01	0.112725	1.38776	-1.52793	0.613684	1.5729	0.955806	0.0526851	-0.169182	-0.149279	1.32307	-0.4496	0	0	-0.0645677	0.0374467	-0.0430298	0.25233	-0.248616	0	0	-0.382188	0.0578393	-0.0688173	-0.209508	-0.470809	0.467311	0.74403	0.942199	0	0	-0.176545	-0.197558	0.000984353	0.622139	1.49154	0	0
0.02	0.081889	1.38412	-1.49484	0.615613	1.56577	0.957178	0.0743521	-0.163728	-0.152073	1.33498	-0.438499	0	0	-0.0815639	0.03082	-0.0402171	0.242988	-0.248381	0	0	-0.384818	0.0656649	-0.0679228	-0.2075	-0.471219	0.466492	0.741648	0.939708	0	0	-0.169336	-0.202112	0.0249788	0.617282	1.47024	0	0
0.03	0.0534168	1.38112	-1.46376	0.617583	1.55863	0.958446	0.0950799	-0.157801	-0.155745	1.3415	-0.406626	0	0	-0.0982551	0.0246706	-0.0348343	0.231155	-0.249271	0	0	-0.392417	0.0728541	-0.103752	-0.157434	-0.486968	0.555789	0.730583	0.896245	0	0	-0.190294	-0.159029	-0.132465	0.627161	1.5708	0	0
0.04	0.028945	1.37925	-1.4378	0.619474	1.55162	0.959492	0.115957	-0.151589	-0.158027	1.34143	-0.390021	0	0	-0.112053	0.0194	-0.0332046	0.223364	-0.247758	0	0	-0.39427	0.0795323	-0.105571	-0.15237	-0.487959	0.558326	0.728454	0.897419	0	0	-0.185485	-0.157423	-0.131518	0.622979	1.5708	0	0
0.05	0.00522307	1.37828	-1.41354	0.62125	1.54469	0.960414	0.137159	-0.144383	-0.158318	1.33646	-0.374502	0	0	-0.124128	0.0142214	-0.0337854	0.217532	-0.245877	0	0	-0.395198	0.0854545	-0.105655	-0.147892	-0.489006	0.560772	0.726307	0.898843	0	0	-0.179572	-0.155545	-0.131323	0.617603	1.5708	0	0
0.06	-0.0713653	1.38038	-1.34309	0.621912	1.53906	0.961863	0.164016	-0.0716707	-0.0635457	1.31371	-0.349307	0	0	-0.128742	-0.00121311	-0.0355842	0.213321	-0.244151	0	0	-0.397561	0.0988955	-0.10008	-0.133281	-0.488179	0.566508	0.716951	0.900939	0	0	-0.167643	-0.15224	-0.132226	0.605606	1.5708	0	0
0.07	-0.0344945	1.37566	-1.36797	0.624875	1.53108	0.961785	0.178472	-0.134763	-0.167793	1.32217	-0.354356	0	0	-0.149072	0.00453416	-0.0295486	0.204521	-0.239695	0	0	-0.400707	0.0979818	-0.115761	-0.137594	-0.491779	0.561751	0.729136	0.902947	0	0	-0.17321	-0.154132	-0.133387	0.615745	1.5708	0	0
0.08	-0.0493814	1.37363	-1.34704	0.626896	1.5246	0.962286	0.196581	-0.130872	-0.172557	1.30997	-0.344558	0	0	-0.160088	-1.3367e-05	-0.0276578	0.201337	-0.237236	0	0	-0.403096	0.104492	-0.119946	-0.135257	-0.493659	0.560685	0.731461	0.903865	0	0	-0.167308	-0.154029	-0.131089	0.613424	1.5708	0	0
0.09	-0.113812	1.37506	-1.28545	0.627587	1.51922	0.96318	0.220993	-0.0618822	-0.0779292	1.27877	-0.323284	0	0	-0.16361	-0.0132725	-0.0281012	0.198252	-0.235162	0	0	-0.405275	0.11672	-0.115004	-0.124314	-0.49339	0.562336	0.725841	0.905644	0	0	-0.155253	-0.152272	-0.128735	0.60403	1.5708	0	0
0.1	-0.0754012	1.36972	-1.31269	0.630214	1.51108	0.962894	0.231133	-0.123563	-0.17793	1.27919	-0.33455	0	0	-0.184414	-0.00837625	-0.0278222	0.190535	-0.232948	0	0	-0.408834	0.115073	-0.12547	-0.135561	-0.492532	0.540074	0.736644	0.925637	0	0	-0.158667	-0.154551	-0.125945	0.612971	1.5708	0	0
0.11	-0.0863168	1.36856	-1.29992	0.631527	1.50426	0.963069	0.246121	-0.120133	-0.179915	1.25695	-0.319431	0	0	-0.197528	-0.0116749	-0.0264182	0.18178	-0.230366	0	0	-0.41003	0.118983	-0.123526	-0.133258	-0.497261	0.548623	0.739574	0.910546	0	0	-0.151507	-0.156266	-0.116171	0.608597	1.5708	0	0
0.12	-0.145325	1.37328	-1.24847	0.631587	1.49863	0.963404	0.267982	-0.0559352	-0.0854629	1.21162	-0.298426	0	0	-0.198524	-0.0223336	-0.0315521	0.178143	-0.228945	0	0	-0.409132	0.127194	-0.111407	-0.124796	-0.49581	0.548184	0.731887	0.912693	0	0	-0.137859	-0.155115	-0.1106	0.597308	1.5708	0	0
